<svg xmlns="http://www.w3.org/2000/svg" viewBox="20 161.05439151158575 535.009468917116 252.89121697682847"> <g transform="rotate(0 146.44560848841425 287.5)"><svg xmlns="http://www.w3.org/2000/svg" viewBox="0 0 121 121" fill="none" height="112.89121697682849" width="112.89121697682849" y="231.05439151158575" x="90" preserveAspectRatio="xMinYMin" style="overflow: visible;"><path fill-rule="evenodd" clip-rule="evenodd" d="M14.5 0C6.49187 0 0 6.49187 0 14.5V58.9848C0 60.9178 1.567 62.4848 3.5 62.4848H21.6212C23.0019 62.4848 24.1212 61.3656 24.1212 59.9848C24.1212 58.6041 23.0019 57.4848 21.6212 57.4848H5V14.5C5 9.25329 9.25329 5 14.5 5H106.5C111.747 5 116 9.25329 116 14.5V49.4697C116 50.8504 117.119 51.9697 118.5 51.9697C119.881 51.9697 121 50.8504 121 49.4697V14.5C121 6.49187 114.508 0 106.5 0H14.5ZM99.3788 57.6364C97.9981 57.6364 96.8788 58.7557 96.8788 60.1364C96.8788 61.5171 97.9981 62.6364 99.3788 62.6364H116V106.5C116 111.747 111.747 116 106.5 116H14.5C9.25329 116 5 111.747 5 106.5V70.6515C5 69.2708 3.88071 68.1515 2.5 68.1515C1.11929 68.1515 0 69.2708 0 70.6515V106.5C0 114.508 6.49187 121 14.5 121H106.5C114.508 121 121 114.508 121 106.5V61.1364C121 59.2034 119.433 57.6364 117.5 57.6364H99.3788ZM56.1478 76.54C58.4198 77.5 60.8517 77.98 63.4438 77.98C65.6198 77.98 67.6838 77.628 69.6357 76.924C71.6198 76.22 73.4758 75.18 75.2038 73.804C75.4597 73.548 75.6517 73.276 75.7798 72.988C75.9078 72.668 75.9717 72.348 75.9717 72.028C75.9717 71.324 75.7798 70.78 75.3958 70.396C75.0117 69.98 74.5318 69.756 73.9557 69.724C73.4118 69.66 72.8518 69.836 72.2757 70.252C70.9317 71.244 69.5238 72.028 68.0518 72.604C66.6118 73.148 65.0758 73.42 63.4438 73.42C61.5558 73.42 59.7798 73.052 58.1157 72.316C56.4518 71.548 54.9798 70.492 53.6997 69.148C52.4518 67.804 51.4757 66.252 50.7718 64.492C50.0677 62.7 49.7158 60.78 49.7158 58.732C49.7158 56.716 50.0677 54.828 50.7718 53.068C51.4757 51.276 52.4518 49.708 53.6997 48.364C54.9798 47.02 56.4518 45.964 58.1157 45.196C59.7798 44.428 61.5558 44.044 63.4438 44.044C65.5238 44.044 67.1878 44.316 68.4358 44.86C69.7158 45.404 70.9478 46.188 72.1318 47.212C72.7077 47.66 73.2998 47.868 73.9078 47.836C74.5158 47.772 75.0278 47.548 75.4438 47.164C75.8918 46.748 76.1158 46.236 76.1158 45.628C76.1158 45.34 76.0838 45.1 76.0198 44.908C75.9877 44.684 75.8918 44.476 75.7318 44.284C75.6038 44.06 75.4118 43.852 75.1557 43.66C73.3638 42.188 71.5717 41.132 69.7798 40.492C68.0198 39.852 65.9078 39.532 63.4438 39.532C60.8198 39.532 58.3878 40.028 56.1478 41.02C53.9077 42.012 51.9398 43.388 50.2438 45.148C48.5798 46.876 47.2677 48.908 46.3078 51.244C45.3797 53.548 44.9157 56.044 44.9157 58.732C44.9157 61.452 45.3797 63.98 46.3078 66.316C47.2677 68.652 48.5798 70.7 50.2438 72.46C51.9398 74.188 53.9077 75.548 56.1478 76.54Z" fill="#4FAEF8" style="fill: #4338ca;"></path></svg></g> <g transform="rotate(0 355.23946464465513 287.4963158513029)"><svg y="270.56631745347573" viewBox="2.6600000858306885 3.809999942779541 259.5400085449219 33.8599967956543" x="225.4694603721942" height="33.8599967956543" width="259.5400085449219" style="overflow: visible;"><g fill="#000" style=""><path d="M19.03 37.67L19.03 37.67Q15.60 37.67 12.62 36.38Q9.64 35.10 7.42 32.77Q5.20 30.44 3.93 27.36Q2.66 24.27 2.66 20.72L2.66 20.72Q2.66 17.21 3.91 14.14Q5.16 11.08 7.40 8.75Q9.64 6.43 12.60 5.12Q15.56 3.81 19.03 3.81L19.03 3.81Q22.20 3.81 24.61 4.67Q27.02 5.54 29.39 7.48L29.39 7.48Q29.73 7.74 29.87 8.05Q30.02 8.37 30.00 8.69Q29.98 9.01 29.85 9.30L29.85 9.30Q29.81 9.94 29.32 10.32Q28.84 10.70 28.18 10.72Q27.53 10.74 26.89 10.27L26.89 10.27Q25.29 8.88 23.51 8.16Q21.73 7.44 19.03 7.44L19.03 7.44Q16.45 7.44 14.19 8.50Q11.92 9.56 10.19 11.37Q8.46 13.19 7.48 15.60Q6.51 18.01 6.51 20.72L6.51 20.72Q6.51 23.51 7.48 25.90Q8.46 28.29 10.19 30.13Q11.92 31.97 14.19 32.98Q16.45 34.00 19.03 34.00L19.03 34.00Q21.27 34.00 23.26 33.26Q25.24 32.52 27.02 31.16L27.02 31.16Q27.70 30.66 28.37 30.72Q29.05 30.78 29.51 31.27Q29.98 31.75 29.98 32.60L29.98 32.60Q29.98 32.98 29.85 33.34Q29.73 33.70 29.39 34.00L29.39 34.00Q27.19 35.90 24.55 36.79Q21.90 37.67 19.03 37.67ZM45.33 37.42L45.33 37.42Q41.95 37.42 39.30 35.92Q36.66 34.42 35.16 31.78Q33.66 29.13 33.66 25.71L33.66 25.71Q33.66 22.24 35.16 19.60Q36.66 16.96 39.30 15.45Q41.95 13.95 45.33 13.95L45.33 13.95Q48.71 13.95 51.35 15.45Q54.00 16.96 55.50 19.60Q57.00 22.24 57.04 25.71L57.04 25.71Q57.04 29.13 55.52 31.78Q54.00 34.42 51.37 35.92Q48.75 37.42 45.33 37.42ZM45.33 33.95L45.33 33.95Q47.65 33.95 49.43 32.90Q51.21 31.84 52.22 29.98Q53.23 28.12 53.23 25.71L53.23 25.71Q53.23 23.30 52.22 21.42Q51.21 19.53 49.43 18.48Q47.65 17.42 45.33 17.42L45.33 17.42Q43.04 17.42 41.25 18.48Q39.45 19.53 38.44 21.42Q37.42 23.30 37.42 25.71L37.42 25.71Q37.42 28.12 38.44 29.98Q39.45 31.84 41.25 32.90Q43.04 33.95 45.33 33.95ZM73.91 37.42L73.91 37.42Q70.61 37.42 67.97 35.88Q65.33 34.33 63.78 31.67Q62.24 29.01 62.24 25.67L62.24 25.67Q62.24 22.33 63.68 19.68Q65.12 17.04 67.61 15.50Q70.11 13.95 73.28 13.95L73.28 13.95Q75.90 13.95 78.08 15.05Q80.25 16.15 81.69 18.01L81.69 18.01L81.69 6.17Q81.69 5.29 82.24 4.76Q82.79 4.23 83.64 4.23L83.64 4.23Q84.52 4.23 85.07 4.76Q85.62 5.29 85.62 6.17L85.62 6.17L85.62 25.75Q85.58 29.05 84.04 31.71Q82.49 34.38 79.85 35.90Q77.21 37.42 73.91 37.42ZM73.91 33.95L73.91 33.95Q76.19 33.95 77.97 32.88Q79.75 31.80 80.78 29.92Q81.82 28.03 81.82 25.67L81.82 25.67Q81.82 23.30 80.78 21.44Q79.75 19.58 77.97 18.50Q76.19 17.42 73.91 17.42L73.91 17.42Q71.71 17.42 69.89 18.50Q68.08 19.58 67.04 21.44Q66.00 23.30 66.00 25.67L66.00 25.67Q66.00 28.03 67.04 29.92Q68.08 31.80 69.89 32.88Q71.71 33.95 73.91 33.95ZM103.97 37.42L103.97 37.42Q100.47 37.42 97.78 35.92Q95.10 34.42 93.57 31.78Q92.05 29.13 92.05 25.71L92.05 25.71Q92.05 22.24 93.49 19.60Q94.93 16.96 97.46 15.45Q100.00 13.95 103.34 13.95L103.34 13.95Q106.60 13.95 108.96 15.41Q111.33 16.87 112.60 19.43Q113.87 21.99 113.87 25.33L113.87 25.33Q113.87 26.05 113.38 26.53Q112.90 27.02 112.09 27.02L112.09 27.02L94.71 27.02L94.71 23.89L112.14 23.89L110.40 25.12Q110.36 22.88 109.51 21.10Q108.67 19.32 107.10 18.31Q105.54 17.29 103.34 17.29L103.34 17.29Q100.93 17.29 99.18 18.39Q97.42 19.49 96.49 21.40Q95.56 23.30 95.56 25.71L95.56 25.71Q95.56 28.12 96.64 30.00Q97.72 31.88 99.60 32.98Q101.48 34.08 103.97 34.08L103.97 34.08Q105.33 34.08 106.79 33.57Q108.25 33.07 109.09 32.39L109.09 32.39Q109.68 31.92 110.36 31.90Q111.04 31.88 111.54 32.30L111.54 32.30Q112.18 32.90 112.22 33.59Q112.26 34.29 111.63 34.80L111.63 34.80Q110.19 35.94 108.06 36.68Q105.92 37.42 103.97 37.42ZM121.78 37.25L121.78 37.25Q120.93 37.25 120.36 36.68Q119.79 36.11 119.79 35.26L119.79 35.26L119.79 6.22Q119.79 5.33 120.36 4.78Q120.93 4.23 121.78 4.23L121.78 4.23Q122.66 4.23 123.21 4.78Q123.76 5.33 123.76 6.22L123.76 6.22L123.76 18.77L143.76 18.77L143.76 6.22Q143.76 5.33 144.33 4.78Q144.91 4.23 145.75 4.23L145.75 4.23Q146.64 4.23 147.19 4.78Q147.74 5.33 147.74 6.22L147.74 6.22L147.74 35.26Q147.74 36.11 147.19 36.68Q146.64 37.25 145.75 37.25L145.75 37.25Q144.91 37.25 144.33 36.68Q143.76 36.11 143.76 35.26L143.76 35.26L143.76 22.28L123.76 22.28L123.76 35.26Q123.76 36.11 123.21 36.68Q122.66 37.25 121.78 37.25ZM166.51 37.42L166.51 37.42Q163.00 37.42 160.32 35.92Q157.63 34.42 156.11 31.78Q154.59 29.13 154.59 25.71L154.59 25.71Q154.59 22.24 156.03 19.60Q157.46 16.96 160.00 15.45Q162.54 13.95 165.88 13.95L165.88 13.95Q169.13 13.95 171.50 15.41Q173.87 16.87 175.14 19.43Q176.41 21.99 176.41 25.33L176.41 25.33Q176.41 26.05 175.92 26.53Q175.43 27.02 174.63 27.02L174.63 27.02L157.25 27.02L157.25 23.89L174.67 23.89L172.94 25.12Q172.90 22.88 172.05 21.10Q171.21 19.32 169.64 18.31Q168.08 17.29 165.88 17.29L165.88 17.29Q163.47 17.29 161.71 18.39Q159.96 19.49 159.03 21.40Q158.10 23.30 158.10 25.71L158.10 25.71Q158.10 28.12 159.18 30.00Q160.25 31.88 162.14 32.98Q164.02 34.08 166.51 34.08L166.51 34.08Q167.87 34.08 169.32 33.57Q170.78 33.07 171.63 32.39L171.63 32.39Q172.22 31.92 172.90 31.90Q173.57 31.88 174.08 32.30L174.08 32.30Q174.71 32.90 174.76 33.59Q174.80 34.29 174.17 34.80L174.17 34.80Q172.73 35.94 170.59 36.68Q168.46 37.42 166.51 37.42ZM185.75 22.88L183.68 22.88Q183.76 20.30 185.01 18.27Q186.26 16.24 188.33 15.05Q190.40 13.87 192.90 13.87L192.90 13.87Q195.22 13.87 196.39 14.59Q197.55 15.31 197.25 16.41L197.25 16.41Q197.13 17.04 196.74 17.32Q196.36 17.59 195.86 17.61Q195.35 17.63 194.76 17.55L194.76 17.55Q192.18 17.12 190.15 17.67Q188.12 18.22 186.93 19.58Q185.75 20.93 185.75 22.88L185.75 22.88ZM183.81 37.25L183.81 37.25Q182.92 37.25 182.41 36.77Q181.90 36.28 181.90 35.35L181.90 35.35L181.90 16.03Q181.90 15.14 182.41 14.63Q182.92 14.12 183.81 14.12L183.81 14.12Q184.78 14.12 185.26 14.61Q185.75 15.10 185.75 16.03L185.75 16.03L185.75 35.35Q185.75 36.24 185.26 36.74Q184.78 37.25 183.81 37.25ZM210.15 37.42L210.15 37.42Q206.98 37.42 204.48 35.90Q201.99 34.38 200.55 31.71Q199.11 29.05 199.11 25.71L199.11 25.71Q199.11 22.33 200.66 19.68Q202.20 17.04 204.84 15.50Q207.48 13.95 210.78 13.95L210.78 13.95Q214.12 13.95 216.74 15.50Q219.37 17.04 220.91 19.70Q222.45 22.37 222.50 25.71L222.50 25.71L220.97 26.09Q220.97 29.30 219.54 31.88Q218.10 34.46 215.67 35.94Q213.24 37.42 210.15 37.42ZM210.78 33.95L210.78 33.95Q213.07 33.95 214.84 32.88Q216.62 31.80 217.65 29.92Q218.69 28.03 218.69 25.71L218.69 25.71Q218.69 23.34 217.65 21.46Q216.62 19.58 214.84 18.50Q213.07 17.42 210.78 17.42L210.78 17.42Q208.58 17.42 206.77 18.50Q204.95 19.58 203.91 21.46Q202.88 23.34 202.88 25.71L202.88 25.71Q202.88 28.03 203.91 29.92Q204.95 31.80 206.77 32.88Q208.58 33.95 210.78 33.95ZM220.51 37.29L220.51 37.29Q219.66 37.29 219.11 36.74Q218.56 36.19 218.56 35.35L218.56 35.35L218.56 28.58L219.37 24.52L222.50 25.71L222.50 35.35Q222.50 36.19 221.92 36.74Q221.35 37.29 220.51 37.29ZM234.46 37.25L234.17 37.25Q232.39 37.25 230.99 36.28Q229.60 35.31 228.82 33.59Q228.03 31.88 228.03 29.64L228.03 29.64L228.03 6.13Q228.03 5.29 228.56 4.76Q229.09 4.23 229.94 4.23L229.94 4.23Q230.82 4.23 231.35 4.76Q231.88 5.29 231.88 6.13L231.88 6.13L231.88 29.64Q231.88 31.29 232.54 32.35Q233.19 33.40 234.17 33.40L234.17 33.40L235.22 33.40Q236.03 33.40 236.49 33.93Q236.96 34.46 236.96 35.35L236.96 35.35Q236.96 36.19 236.26 36.72Q235.56 37.25 234.46 37.25L234.46 37.25ZM250.49 37.42L250.49 37.42Q247.19 37.42 244.55 35.88Q241.90 34.33 240.36 31.67Q238.82 29.01 238.82 25.67L238.82 25.67Q238.82 22.33 240.25 19.68Q241.69 17.04 244.19 15.50Q246.68 13.95 249.85 13.95L249.85 13.95Q252.47 13.95 254.65 15.05Q256.83 16.15 258.27 18.01L258.27 18.01L258.27 6.17Q258.27 5.29 258.82 4.76Q259.37 4.23 260.21 4.23L260.21 4.23Q261.10 4.23 261.65 4.76Q262.20 5.29 262.20 6.17L262.20 6.17L262.20 25.75Q262.16 29.05 260.61 31.71Q259.07 34.38 256.43 35.90Q253.78 37.42 250.49 37.42ZM250.49 33.95L250.49 33.95Q252.77 33.95 254.55 32.88Q256.32 31.80 257.36 29.92Q258.39 28.03 258.39 25.67L258.39 25.67Q258.39 23.30 257.36 21.44Q256.32 19.58 254.55 18.50Q252.77 17.42 250.49 17.42L250.49 17.42Q248.29 17.42 246.47 18.50Q244.65 19.58 243.62 21.44Q242.58 23.30 242.58 25.67L242.58 25.67Q242.58 28.03 243.62 29.92Q244.65 31.80 246.47 32.88Q248.29 33.95 250.49 33.95Z" transform="translate(0, 0)"></path></g></svg></g></svg>